<svg id="draft-fill" xmlns="http://www.w3.org/2000/svg" width="32" height="32" viewBox="0 0 32 32">
  <path id="Path_3" data-name="Path 3" d="M0,0H32V32H0Z" fill="none"/>
  <path id="Path_4" data-name="Path 4" d="M25.667,2A1.334,1.334,0,0,1,27,3.333V8.343l-12,12-.008,5.651L20.655,26,27,19.656v7.677a1.334,1.334,0,0,1-1.333,1.333H4.333A1.334,1.334,0,0,1,3,27.333v-24A1.334,1.334,0,0,1,4.333,2Zm2.371,9.077,1.885,1.885L19.552,23.333l-1.888,0,0-1.883L28.037,11.077ZM15,15.333H8.333V18H15ZM19,10H8.333v2.667H19Z" transform="translate(1 0.667)" fill="#84a98c"/>
</svg>
