<?xml version="1.0" encoding="iso-8859-1"?>
<!-- Generator: Adobe Illustrator 19.0.0, SVG Export Plug-In . SVG Version: 6.00 Build 0)  -->
<svg version="1.1" id="Capa_1" xmlns="http://www.w3.org/2000/svg" xmlns:xlink="http://www.w3.org/1999/xlink" x="0px" y="0px"
	 viewBox="0 0 512 512" style="enable-background:new 0 0 512 512;" xml:space="preserve">
<circle style="fill:#354F52;" cx="256" cy="256" r="256"/>
<path style="fill:#354F52;" d="M512,256c0-7.103-0.303-14.133-0.87-21.089L385.219,109L228.983,226l-16.079,116.854l-76.974,45.723
	l123.38,123.38C399.167,510.183,512,396.278,512,256z"/>
<polygon style="fill:#FFF;" points="212.904,236.81 212.904,368.737 230.135,368.737 230.135,224.854 221.85,224.854 "/>
<polygon style="fill:#FFF;" points="367.988,317.042 385.219,317.042 385.219,179.368 367.988,175.409 "/>
<g>
	<path style="fill:#FFF;" d="M299.061,138.178v0.172l-86.158,28.605v69.788l86.158-28.605l86.158-28.776V109L299.061,138.178z"/>
	<path style="fill:#FFF;" d="M178.441,403.2c-28.986,0-51.695-15.137-51.695-34.463s22.709-34.463,51.695-34.463
		s51.695,15.137,51.695,34.463S207.426,403.2,178.441,403.2z"/>
	<path style="fill:#FFF;" d="M333.525,282.579c-13.441,0-25.33,3.274-34.463,8.616c-10.684,6.203-17.232,15.508-17.232,25.847
		s6.548,19.644,17.232,25.847c9.133,5.342,21.022,8.616,34.463,8.616c28.949,0,51.695-15.164,51.695-34.463
		C385.219,297.743,362.473,282.579,333.525,282.579z"/>
</g>
<g>
	<path style="fill:#FFF;" d="M385.219,317.042c0,19.299-22.746,34.463-51.695,34.463c-13.441,0-25.33-3.274-34.463-8.616v-51.695
		c9.133-5.342,21.022-8.616,34.463-8.616C362.473,282.579,385.219,297.743,385.219,317.042z"/>
	<polygon style="fill:#FFF;" points="385.219,109 385.219,179.362 299.061,208.138 299.061,138.178 	"/>
</g>
<g>
</g>
<g>
</g>
<g>
</g>
<g>
</g>
<g>
</g>
<g>
</g>
<g>
</g>
<g>
</g>
<g>
</g>
<g>
</g>
<g>
</g>
<g>
</g>
<g>
</g>
<g>
</g>
<g>
</g>
</svg>
